<svg width="179" height="61" viewBox="0 0 179 61" fill="none" xmlns="http://www.w3.org/2000/svg">
<rect x="0.314147" y="0.314147" width="178.173" height="60.3717" rx="12.2517" fill="white"/>
<path d="M49.107 37.7056C48.3835 39.3109 48.0375 40.027 47.1043 41.446C45.8042 43.4263 43.9692 45.8945 41.6992 45.9155C39.6808 45.9338 39.1617 44.6014 36.4225 44.6171C33.6832 44.6329 33.1117 45.9391 31.0933 45.9207C28.8233 45.8997 27.0853 43.6729 25.7852 41.6899C22.1468 36.1502 21.7693 29.648 24.0105 26.1935C25.6043 23.7358 28.1181 22.2985 30.4826 22.2985C32.8889 22.2985 34.4041 23.6204 36.3936 23.6204C38.3255 23.6204 39.5025 22.2985 42.2837 22.2985C44.3886 22.2985 46.6168 23.4447 48.2053 25.4276C43.002 28.2788 43.8487 35.7175 49.107 37.7056Z" fill="#1B1C20"/>
<path d="M40.1715 20.0863C41.1833 18.7879 41.9514 16.9519 41.6709 15.0791C40.0195 15.1919 38.0876 16.2437 36.9578 17.6155C35.9328 18.8614 35.0888 20.7053 35.4164 22.4994C37.2225 22.5545 39.0889 21.4765 40.1715 20.0863Z" fill="#1B1C20"/>
<path d="M58.9291 23.2746C60.0589 23.2746 61.0849 22.7674 61.4077 21.8451V23.1363H62.3184V19.551H59.1942V20.3349H61.4077C61.2809 21.58 60.4047 22.4331 59.0444 22.4331C57.4765 22.4331 56.4159 21.3148 56.4159 19.5164C56.4159 17.718 57.465 16.5882 58.9521 16.5882C60.4162 16.5882 61.2693 17.4644 61.35 18.7901L62.3069 18.7325C62.1801 16.8764 60.9927 15.7351 58.9406 15.7351C56.9347 15.7351 55.3899 17.2684 55.3899 19.5049C55.3899 21.7644 56.877 23.2746 58.9291 23.2746Z" fill="#1B1C20"/>
<path d="M67.4425 21.3494C67.235 22.1218 66.7393 22.5253 65.8977 22.5253C64.9985 22.5253 64.2953 21.8336 64.2491 20.8537H68.261V20.4732C68.261 19.1014 67.4425 17.9601 65.84 17.9601C64.3875 17.9601 63.2923 19.1014 63.2923 20.6923C63.2923 22.2601 64.3875 23.2746 65.8862 23.2746C67.1427 23.2746 67.9843 22.5829 68.2379 21.4416L67.4425 21.3494ZM64.2722 20.2312C64.3875 19.4011 64.9293 18.6864 65.84 18.6864C66.7969 18.6864 67.2465 19.4242 67.2811 20.2312H64.2722Z" fill="#1B1C20"/>
<path d="M69.4283 21.9604C69.4283 22.9403 69.9356 23.2746 70.6503 23.2746C71.2037 23.2746 71.5726 23.1248 71.9415 22.8481V22.2025C71.6533 22.3639 71.319 22.5022 70.9962 22.5022C70.5581 22.5022 70.3736 22.2947 70.3736 21.8451V18.7901H71.7916V18.0984H70.3736V16.7035H69.8318L69.6819 17.4067C69.5667 17.8909 69.4629 18.1215 68.9903 18.2137L68.6675 18.2713V18.7901H69.4283V21.9604Z" fill="#1B1C20"/>
<path d="M74.8507 18.0984V23.1363H75.8075V18.0984H74.8507ZM74.8276 16.9571H75.8191V15.8734H74.8276V16.9571Z" fill="#1B1C20"/>
<path d="M77.2865 21.9604C77.2865 22.9403 77.7937 23.2746 78.5085 23.2746C79.0619 23.2746 79.4308 23.1248 79.7997 22.8481V22.2025C79.5115 22.3639 79.1771 22.5022 78.8544 22.5022C78.4163 22.5022 78.2318 22.2947 78.2318 21.8451V18.7901H79.6498V18.0984H78.2318V16.7035H77.69L77.5401 17.4067C77.4248 17.8909 77.3211 18.1215 76.8484 18.2137L76.5256 18.2713V18.7901H77.2865V21.9604Z" fill="#1B1C20"/>
<path d="M83.366 20.6231C83.366 19.4933 83.9309 18.7094 84.9454 18.7094C85.9714 18.7094 86.5478 19.4933 86.5478 20.6231C86.5478 21.7414 85.9714 22.5368 84.9454 22.5368C83.9309 22.5368 83.366 21.7414 83.366 20.6231ZM87.5277 20.6231C87.5277 19.0553 86.4325 17.9601 84.9454 17.9601C83.4697 17.9601 82.3861 19.0553 82.3861 20.6231C82.3861 22.191 83.4697 23.2746 84.9454 23.2746C86.4325 23.2746 87.5277 22.191 87.5277 20.6231Z" fill="#1B1C20"/>
<path d="M89.4749 20.2427C89.4749 19.3204 90.0744 18.7209 90.8352 18.7209C91.6307 18.7209 92.0342 19.2512 92.0342 20.0928V23.1363H92.991V20.0121C92.991 18.8362 92.4607 17.9601 91.1465 17.9601C90.3972 17.9601 89.717 18.3866 89.4749 18.9976V18.0984H88.5181V23.1363H89.4749V20.2427Z" fill="#1B1C20"/>
<path d="M61.2977 26.6975L55.3899 41.467H58.9533L60.1959 38.2787H66.1506L67.4166 41.467H71.2144L65.2597 26.6975H61.2977ZM63.1263 30.7532H63.2201L65.1191 35.6061H61.2274L63.1263 30.7532Z" fill="#1B1C20"/>
<path d="M75.7318 36.1453C75.7318 34.4808 76.693 33.4258 78.0996 33.4258C79.6938 33.4258 80.4674 34.5746 80.4674 36.2625C80.4674 37.9739 79.6938 39.1227 78.0996 39.1227C76.693 39.1227 75.7318 38.0677 75.7318 36.3797V36.1453ZM75.7318 39.615C76.2475 40.8341 77.4432 41.7484 79.2483 41.7484C82.296 41.7484 83.8902 39.3337 83.8902 36.2625C83.8902 33.2148 82.296 30.7767 79.2483 30.7767C77.4432 30.7767 76.2475 31.691 75.7318 32.9335V31.058H72.3559V45.2649H75.7318V39.615Z" fill="#1B1C20"/>
<path d="M88.8731 36.1453C88.8731 34.4808 89.8343 33.4258 91.2409 33.4258C92.8351 33.4258 93.6088 34.5746 93.6088 36.2625C93.6088 37.9739 92.8351 39.1227 91.2409 39.1227C89.8343 39.1227 88.8731 38.0677 88.8731 36.3797V36.1453ZM88.8731 39.615C89.3889 40.8341 90.5845 41.7484 92.3897 41.7484C95.4374 41.7484 97.0316 39.3337 97.0316 36.2625C97.0316 33.2148 95.4374 30.7767 92.3897 30.7767C90.5845 30.7767 89.3889 31.691 88.8731 32.9335V31.058H85.4972V45.2649H88.8731V39.615Z" fill="#1B1C20"/>
<path d="M102.218 36.2156C102.218 39.8025 105.031 41.7484 108.97 41.7484C112.346 41.7484 114.995 40.1776 114.995 37.1299C114.995 34.7152 113.612 33.2148 110.588 32.6756L107.821 32.1833C106.743 31.9723 106.086 31.6675 106.086 30.8236C106.086 29.8155 106.93 29.2059 108.431 29.2059C110.142 29.2059 111.338 30.0499 111.432 31.7848L114.714 31.691C114.643 28.4089 112.463 26.4161 108.454 26.4161C104.867 26.4161 102.593 28.2213 102.593 31.1283C102.593 33.6368 104.258 34.9497 106.602 35.3951L109.368 35.8874C110.658 36.1453 111.525 36.3797 111.525 37.3644C111.525 38.349 110.541 38.9586 108.97 38.9586C107.141 38.9586 105.617 38.138 105.477 36.0984L102.218 36.2156Z" fill="#1B1C20"/>
<path d="M117.192 38.6772C117.192 41.0216 118.716 41.7484 120.404 41.7484C121.763 41.7484 122.654 41.4202 123.428 40.8341V38.6069C122.795 38.8882 122.256 39.0289 121.74 39.0289C120.943 39.0289 120.521 38.6538 120.521 37.7629V33.4258H123.287V31.058H120.521V28.1744H118.434L118.083 29.5576C117.825 30.5188 117.52 31.058 116.488 31.2456L115.738 31.3628V33.4258H117.192V38.6772Z" fill="#1B1C20"/>
<path d="M127.758 36.2625C127.758 34.5277 128.438 33.3321 129.938 33.3321C131.415 33.3321 132.142 34.5277 132.142 36.2625C132.142 37.9974 131.415 39.193 129.938 39.193C128.438 39.193 127.758 37.9974 127.758 36.2625ZM135.565 36.2625C135.565 33.0507 133.267 30.7767 129.938 30.7767C126.609 30.7767 124.335 33.0507 124.335 36.2625C124.335 39.4978 126.609 41.7484 129.938 41.7484C133.267 41.7484 135.565 39.4978 135.565 36.2625Z" fill="#1B1C20"/>
<path d="M144.906 31.1987C144.624 30.9642 144.085 30.7767 143.452 30.7767C142.045 30.7767 140.967 31.7848 140.569 32.957V31.058H137.193V41.467H140.569V36.5439C140.569 34.7387 141.506 33.9416 142.913 33.9416C143.64 33.9416 144.155 34.0588 144.695 34.3636L144.906 31.1987Z" fill="#1B1C20"/>
<path d="M153.393 37.7864C153.018 38.7476 152.291 39.193 151.119 39.193C149.806 39.193 148.775 38.3959 148.681 37.0127H156.183V35.9812C156.183 33.1445 154.378 30.7767 150.932 30.7767C147.743 30.7767 145.352 33.1445 145.352 36.4266C145.352 39.7322 147.697 41.7484 151.002 41.7484C153.722 41.7484 155.574 40.4121 156.113 38.0443L153.393 37.7864ZM148.728 35.2076C148.916 34.1057 149.549 33.2383 150.908 33.2383C152.198 33.2383 152.854 34.176 152.924 35.2076H148.728Z" fill="#1B1C20"/>
<rect x="0.314147" y="0.314147" width="178.173" height="60.3717" rx="12.2517" stroke="#1B1C20" stroke-width="0.628294"/>
</svg>
