<svg width="180" height="61" viewBox="0 0 180 61" fill="none" xmlns="http://www.w3.org/2000/svg">
<rect x="1.1159" y="0.316832" width="177.784" height="60.3664" rx="12.2517" fill="white"/>
<path d="M15.8809 15.1938V30.5005V45.8071L31.3076 30.5005L15.8809 15.1938Z" fill="url(#paint0_linear_1_119)"/>
<path d="M35.4525 26.3895L29.223 22.7932L15.8809 15.0818V15.1953L31.3076 30.5019L35.4525 26.3895Z" fill="url(#paint1_linear_1_119)"/>
<path d="M15.8809 45.8076V45.9184L29.223 38.2097L35.4498 34.6107L31.3076 30.501L15.8809 45.8076Z" fill="url(#paint2_linear_1_119)"/>
<path d="M35.4494 26.3878L31.3044 30.5002L35.4467 34.6099L42.5646 30.5002L35.4494 26.3878Z" fill="url(#paint3_linear_1_119)"/>
<path d="M52.3869 23.2748C53.5166 23.2748 54.5426 22.7675 54.8654 21.8452V23.1364H55.7762V19.5511H52.652V20.335H54.8654C54.7386 21.5801 53.8625 22.4332 52.5021 22.4332C50.9343 22.4332 49.8737 21.3149 49.8737 19.5165C49.8737 17.7181 50.9228 16.5883 52.4099 16.5883C53.874 16.5883 54.7271 17.4645 54.8078 18.7902L55.7646 18.7326C55.6378 16.8765 54.4504 15.7352 52.3984 15.7352C50.3925 15.7352 48.8477 17.2685 48.8477 19.505C48.8477 21.7645 50.3348 23.2748 52.3869 23.2748Z" fill="#1B1C20"/>
<path d="M60.9002 21.3495C60.6927 22.1219 60.197 22.5254 59.3555 22.5254C58.4562 22.5254 57.753 21.8337 57.7069 20.8538H61.7188V20.4734C61.7188 19.1015 60.9002 17.9602 59.2978 17.9602C57.8452 17.9602 56.7501 19.1015 56.7501 20.6924C56.7501 22.2603 57.8452 23.2748 59.3439 23.2748C60.6005 23.2748 61.4421 22.5831 61.6957 21.4417L60.9002 21.3495ZM57.73 20.2313C57.8452 19.4012 58.3871 18.6865 59.2978 18.6865C60.2547 18.6865 60.7043 19.4243 60.7388 20.2313H57.73Z" fill="#1B1C20"/>
<path d="M62.8861 21.9605C62.8861 22.9404 63.3933 23.2748 64.1081 23.2748C64.6615 23.2748 65.0304 23.1249 65.3993 22.8482V22.2026C65.1111 22.364 64.7767 22.5024 64.4539 22.5024C64.0159 22.5024 63.8314 22.2948 63.8314 21.8452V18.7902H65.2494V18.0985H63.8314V16.7036H63.2896L63.1397 17.4068C63.0244 17.891 62.9207 18.1216 62.448 18.2138L62.1252 18.2715V18.7902H62.8861V21.9605Z" fill="#1B1C20"/>
<path d="M68.3085 18.0985V23.1364H69.2653V18.0985H68.3085ZM68.2854 16.9572H69.2768V15.8736H68.2854V16.9572Z" fill="#1B1C20"/>
<path d="M70.7443 21.9605C70.7443 22.9404 71.2515 23.2748 71.9663 23.2748C72.5196 23.2748 72.8885 23.1249 73.2574 22.8482V22.2026C72.9692 22.364 72.6349 22.5024 72.3121 22.5024C71.874 22.5024 71.6896 22.2948 71.6896 21.8452V18.7902H73.1076V18.0985H71.6896V16.7036H71.1478L70.9979 17.4068C70.8826 17.891 70.7788 18.1216 70.3062 18.2138L69.9834 18.2715V18.7902H70.7443V21.9605Z" fill="#1B1C20"/>
<path d="M76.8237 20.6232C76.8237 19.4935 77.3886 18.7095 78.4031 18.7095C79.4291 18.7095 80.0056 19.4935 80.0056 20.6232C80.0056 21.7415 79.4291 22.5369 78.4031 22.5369C77.3886 22.5369 76.8237 21.7415 76.8237 20.6232ZM80.9855 20.6232C80.9855 19.0554 79.8903 17.9602 78.4031 17.9602C76.9275 17.9602 75.8438 19.0554 75.8438 20.6232C75.8438 22.1911 76.9275 23.2748 78.4031 23.2748C79.8903 23.2748 80.9855 22.1911 80.9855 20.6232Z" fill="#1B1C20"/>
<path d="M82.9327 20.2428C82.9327 19.3205 83.5321 18.7211 84.293 18.7211C85.0885 18.7211 85.492 19.2514 85.492 20.0929V23.1364H86.4488V20.0122C86.4488 18.8363 85.9185 17.9602 84.6043 17.9602C83.8549 17.9602 83.1748 18.3867 82.9327 18.9977V18.0985H81.9758V23.1364H82.9327V20.2428Z" fill="#1B1C20"/>
<path d="M55.916 41.523C57.8563 41.523 59.5194 40.8763 60.3048 39.421V41.2458H63.3769V33.7848H56.5858V36.3257H60.0738C59.5656 37.7579 58.2028 38.5663 56.6089 38.5663C53.9525 38.5663 52.4511 36.7415 52.4511 33.9696C52.4511 31.2671 53.9063 29.5115 56.3317 29.5115C58.4338 29.5115 59.6811 30.6896 59.8659 32.5144L63.2845 32.3989C62.9612 28.7262 60.4896 26.4163 56.2624 26.4163C52.1046 26.4163 48.8477 29.4884 48.8477 33.9696C48.8477 38.474 51.8736 41.523 55.916 41.523Z" fill="#1B1C20"/>
<path d="M68.3032 36.1179C68.3032 34.4085 68.973 33.2305 70.4514 33.2305C71.9066 33.2305 72.6227 34.4085 72.6227 36.1179C72.6227 37.8272 71.9066 39.0052 70.4514 39.0052C68.973 39.0052 68.3032 37.8272 68.3032 36.1179ZM75.9951 36.1179C75.9951 32.9533 73.7314 30.7127 70.4514 30.7127C67.1713 30.7127 64.9307 32.9533 64.9307 36.1179C64.9307 39.3055 67.1713 41.523 70.4514 41.523C73.7314 41.523 75.9951 39.3055 75.9951 36.1179Z" fill="#1B1C20"/>
<path d="M80.4617 36.1179C80.4617 34.4085 81.1316 33.2305 82.61 33.2305C84.0652 33.2305 84.7813 34.4085 84.7813 36.1179C84.7813 37.8272 84.0652 39.0052 82.61 39.0052C81.1316 39.0052 80.4617 37.8272 80.4617 36.1179ZM88.1537 36.1179C88.1537 32.9533 85.89 30.7127 82.61 30.7127C79.3299 30.7127 77.0893 32.9533 77.0893 36.1179C77.0893 39.3055 79.3299 41.523 82.61 41.523C85.89 41.523 88.1537 39.3055 88.1537 36.1179Z" fill="#1B1C20"/>
<path d="M99.1821 34.2237C99.1821 33.6925 99.0435 33.2305 98.8125 32.8147C99.3207 32.6761 99.9212 32.6068 100.406 32.6068V30.0428C99.2976 30.0428 98.2119 30.7358 97.6113 31.5673C96.7567 31.013 95.5786 30.7127 94.3313 30.7127C91.5132 30.7127 89.5036 32.0524 89.5036 34.2237C89.5036 35.3325 90.0348 36.2333 90.9588 36.8339C89.8963 37.2266 89.2495 37.9889 89.2495 38.9359C89.2495 39.8137 89.7808 40.5991 90.7047 40.8993C89.5267 41.0148 88.7182 41.754 88.7182 42.7011C88.7182 44.6183 91.1898 45.2651 94.0772 45.2651C97.3572 45.2651 100.406 44.1332 100.406 41.5692C100.406 39.883 99.2283 38.6587 96.9415 38.6587H92.7374C92.0676 38.6587 91.7904 38.3585 91.7904 37.9658C91.7904 37.7117 91.9059 37.5269 92.0676 37.3883C92.7374 37.5962 93.4997 37.7117 94.3313 37.7117C97.1493 37.7117 99.1821 36.3719 99.1821 34.2237ZM91.5594 42.3084C91.5594 41.7771 91.9752 41.523 92.5064 41.523H96.133C96.8953 41.523 97.311 41.7078 97.311 42.2622C97.311 43.0245 95.9482 43.4171 94.1003 43.4171C92.5988 43.4171 91.5594 43.1169 91.5594 42.3084ZM95.7403 34.2237C95.7403 35.2632 95.1628 35.8638 94.3544 35.8638C93.569 35.8638 92.9915 35.2632 92.9915 34.2237C92.9915 33.2074 93.569 32.6299 94.3544 32.6299C95.1628 32.6299 95.7403 33.2074 95.7403 34.2237Z" fill="#1B1C20"/>
<path d="M101.51 26.6934V41.2458H104.836V26.6934H101.51Z" fill="#1B1C20"/>
<path d="M114.36 37.6193C113.99 38.5663 113.274 39.0052 112.119 39.0052C110.826 39.0052 109.809 38.2199 109.717 36.857H117.109V35.8407C117.109 33.0457 115.33 30.7127 111.934 30.7127C108.793 30.7127 106.437 33.0457 106.437 36.2795C106.437 39.5365 108.747 41.523 112.004 41.523C114.683 41.523 116.508 40.2064 117.039 37.8734L114.36 37.6193ZM109.763 35.0784C109.948 33.9927 110.572 33.1381 111.911 33.1381C113.182 33.1381 113.828 34.062 113.898 35.0784H109.763Z" fill="#1B1C20"/>
<path d="M126.475 33.6925V29.5115H128.993C130.91 29.5115 131.696 30.2507 131.696 31.6135C131.696 32.9764 130.91 33.6925 128.993 33.6925H126.475ZM126.475 36.5105H129.132C132.897 36.5105 135.091 34.7319 135.091 31.5904C135.091 28.449 132.897 26.6934 129.132 26.6934H122.987V41.2458H126.475V36.5105Z" fill="#1B1C20"/>
<path d="M136.407 26.6934V41.2458H139.733V26.6934H136.407Z" fill="#1B1C20"/>
<path d="M147.94 36.9032C147.94 38.3585 146.97 39.2824 145.745 39.2824C145.029 39.2824 144.567 38.9128 144.567 38.3123C144.567 37.5038 145.214 37.2497 146.254 37.0418L147.94 36.6953V36.9032ZM151.22 34.7088C151.22 31.9138 149.303 30.7127 146.623 30.7127C143.69 30.7127 142.05 32.2372 141.703 34.4316L144.798 34.6626C144.983 33.8079 145.468 33.2074 146.438 33.2074C147.455 33.2074 147.94 33.7848 147.94 34.755V34.9398L145.075 35.448C142.812 35.8869 141.333 36.7184 141.333 38.6818C141.333 40.4374 142.627 41.4768 144.683 41.4768C146.277 41.4768 147.547 40.8532 148.125 39.6751C148.425 40.8301 149.326 41.4768 150.55 41.4768C151.566 41.4768 152.213 41.1765 152.721 40.807V39.0283C152.421 39.1669 152.167 39.2131 151.867 39.2131C151.451 39.2131 151.22 38.9821 151.22 38.4509V34.7088Z" fill="#1B1C20"/>
<path d="M158.245 44.9879L164.135 30.9899H160.855L158.337 37.3883H158.245L155.773 30.9899H152.262L156.466 41.3382L154.965 44.9879H158.245Z" fill="#1B1C20"/>
<rect x="1.1159" y="0.316832" width="177.784" height="60.3664" rx="12.2517" stroke="#1B1C20" stroke-width="0.628294"/>
<defs>
<linearGradient id="paint0_linear_1_119" x1="23.5936" y1="15.1926" x2="23.5936" y2="45.8066" gradientUnits="userSpaceOnUse">
<stop stop-color="#257CB0"/>
<stop offset="0.2863" stop-color="#4A93B5"/>
<stop offset="0.767" stop-color="#78BCBB"/>
<stop offset="1" stop-color="#89CFBD"/>
</linearGradient>
<linearGradient id="paint1_linear_1_119" x1="15.8798" y1="22.7919" x2="35.4513" y2="22.7919" gradientUnits="userSpaceOnUse">
<stop stop-color="#52C1AD"/>
<stop offset="1" stop-color="#DEE89A"/>
</linearGradient>
<linearGradient id="paint2_linear_1_119" x1="25.6654" y1="30.5003" x2="25.6654" y2="45.9184" gradientUnits="userSpaceOnUse">
<stop stop-color="#EC413D"/>
<stop offset="0.1668" stop-color="#DA4452"/>
<stop offset="0.5748" stop-color="#B0487A"/>
<stop offset="0.8619" stop-color="#954A92"/>
<stop offset="1" stop-color="#8A4A9D"/>
</linearGradient>
<linearGradient id="paint3_linear_1_119" x1="36.9346" y1="26.388" x2="36.9346" y2="34.6105" gradientUnits="userSpaceOnUse">
<stop stop-color="#F58879"/>
<stop offset="0.1194" stop-color="#F69079"/>
<stop offset="0.7128" stop-color="#FCB877"/>
<stop offset="1" stop-color="#FEC874"/>
</linearGradient>
</defs>
</svg>
